#!OML:ASF F:\VICON\USERDATA\INSTALL\rory3\rory3.ASF
:FULLY-SPECIFIED
:DEGREES
4162
root -3.42325 18.6295 4.1141 2.87823 -3.59086 0.556304
lowerback 9.25714 0.74745 -1.57569
upperback 0.929324 0.817597 -0.29337
thorax -4.24324 0.428963 0.477755
lowerneck -15.6061 -1.55988 -6.16024
upperneck 3.92115 -1.41358 6.51007
head 3.77084 -0.442346 2.89914
rclavicle 1.09704e-014 -6.4605e-015
rhumerus -20.0422 -31.5344 -43.9343
rradius 115.511
rwrist -32.0986
rhand -18.5921 8.09962
rfingers 7.12502
rthumb 7.69887 -21.7402
lclavicle 1.09704e-014 -6.4605e-015
lhumerus -26.0837 16.9256 44.0749
lradius 97.8574
lwrist 35.1519
lhand -19.4665 15.4342
lfingers 7.12502
lthumb 6.8548 45.3032
rfemur -12.4421 9.76846 17.0233
rtibia 30.2387
rfoot -22.0433 -27.1607
rtoes 1.85658
lfemur -13.1068 -1.93876 -16.8784
ltibia 29.7039
lfoot -18.5053 21.7554
ltoes -6.14112
4163
root -3.41864 18.6253 4.10118 2.92701 -3.72141 0.622122
lowerback 9.43341 0.784692 -1.64701
upperback 0.945602 0.854681 -0.323873
thorax -4.32608 0.448598 0.479327
lowerneck -15.8458 -1.58517 -6.1565
upperneck 4.12603 -1.44446 6.52421
head 3.87344 -0.452402 2.90152
rclavicle -9.90196e-015 -1.12313e-014
rhumerus -19.8372 -31.5957 -44.0639
rradius 115.497
rwrist -32.1629
rhand -18.6644 8.16345
rfingers 7.12502
rthumb 7.62907 -21.6789
lclavicle -9.90196e-015 -1.12313e-014
lhumerus -26.1375 16.9208 43.976
lradius 97.9117
lwrist 35.2258
lhand -19.7468 15.5712
lfingers 7.12502
lthumb 6.5843 45.4489
rfemur -12.7146 9.68066 16.8939
rtibia 30.4977
rfoot -21.9806 -26.9601
rtoes 1.62561
lfemur -13.2738 -1.76885 -16.9657
ltibia 29.8467
lfoot -18.5086 21.7244
ltoes -6.25534
4164
root -3.41549 18.6203 4.08696 2.96958 -3.80967 0.663918
lowerback 9.61318 0.803629 -1.68883
upperback 0.990346 0.870613 -0.351506
thorax -4.38034 0.456961 0.47011
lowerneck -15.9548 -1.61964 -6.21935
upperneck 4.15972 -1.48158 6.61892
head 3.9049 -0.464582 2.93868
rclavicle 1.1281e-014 -1.23246e-014
rhumerus -19.5654 -31.5931 -44.2588
rradius 115.424
rwrist -32.0341
rhand -18.8448 8.30693
rfingers 7.12502
rthumb 7.45496 -21.5417
lclavicle 1.1281e-014 -1.23246e-014
lhumerus -26.1235 16.9182 43.8953
lradius 97.9719
lwrist 35.3065
lhand -19.9779 15.6582
lfingers 7.12502
lthumb 6.36112 45.5426
rfemur -12.9948 9.61288 16.8016
rtibia 30.7936
rfoot -21.8803 -26.7996
rtoes 1.40076
lfemur -13.4598 -1.59923 -17.0119
ltibia 30.0084
lfoot -18.5246 21.6167
ltoes -6.15552
4165
root -3.41075 18.6151 4.06868 3.06587 -3.87771 0.799828
lowerback 9.70118 0.812275 -1.83714
upperback 1.05375 0.863594 -0.380156
thorax -4.36496 0.455339 0.524101
lowerneck -15.8956 -1.6304 -6.29181
upperneck 4.0069 -1.48521 6.69596
head 3.85035 -0.46463 2.97366
rclavicle 2.91965e-015 7.45443e-015
rhumerus -19.2568 -31.4725 -44.4487
rradius 115.313
rwrist -31.8463
rhand -18.8395 8.4976
rfingers 7.12502
rthumb 7.46008 -21.3509
lclavicle 2.91965e-015 7.45443e-015
lhumerus -26.0456 17.0402 43.8741
lradius 97.9909
lwrist 35.4053
lhand -19.8956 15.7265
lfingers 7.12502
lthumb 6.44058 45.6085
rfemur -13.3939 9.47462 16.579
rtibia 31.1396
rfoot -21.8442 -26.5844
rtoes 1.22283
lfemur -13.7338 -1.3636 -17.1638
ltibia 30.1872
lfoot -18.4832 21.4394
ltoes -6.21816
4166
root -3.4038 18.6075 4.05217 3.171 -3.90343 0.923533
lowerback 9.77105 0.808735 -1.93126
upperback 1.11926 0.845659 -0.427355
thorax -4.33586 0.447069 0.530065
lowerneck -15.8537 -1.61719 -6.26066
upperneck 3.82223 -1.46896 6.70033
head 3.78589 -0.456929 2.97055
rclavicle -3.98812e-015 1.16289e-014
rhumerus -19.0367 -31.4107 -44.6201
rradius 115.261
rwrist -31.8057
rhand -18.5247 8.53393
rfingers 7.12502
rthumb 7.76387 -21.3035
lclavicle -3.98812e-015 1.16289e-014
lhumerus -25.952 17.1681 43.8327
lradius 98.0044
lwrist 35.6059
lhand -19.3796 15.6453
lfingers 7.12502
lthumb 6.93876 45.5116
rfemur -13.8144 9.23304 16.3695
rtibia 31.5479
rfoot -21.8383 -26.3513
rtoes 0.982627
lfemur -14.0166 -1.12466 -17.3098
ltibia 30.3643
lfoot -18.395 21.2328
ltoes -6.14233
4167
root -3.39572 18.5988 4.03756 3.28626 -3.86919 1.14557
lowerback 9.83229 0.793626 -2.10536
upperback 1.19092 0.802763 -0.502392
thorax -4.29557 0.427417 0.555597
lowerneck -15.9459 -1.61128 -6.26678
upperneck 3.69296 -1.45079 6.7153
head 3.75967 -0.44594 2.97732
rclavicle 1.95057e-015 -4.17448e-015
rhumerus -18.8633 -31.4208 -44.6969
rradius 115.278
rwrist -31.7708
rhand -18.3717 8.4866
rfingers 7.12502
rthumb 7.91162 -21.3453
lclavicle 1.95057e-015 -4.17448e-015
lhumerus -25.7778 17.2892 43.8102
lradius 97.9743
lwrist 35.6268
lhand -18.8998 15.5519
lfingers 7.12502
lthumb 7.40191 45.4025
rfemur -14.26 8.95079 16.0491
rtibia 32.011
rfoot -21.8194 -26.1437
rtoes 0.744809
lfemur -14.325 -0.906294 -17.5729
ltibia 30.5582
lfoot -18.2756 21.0203
ltoes -6.27178
4168
root -3.38656 18.5895 4.02106 3.41786 -3.85064 1.39783
lowerback 9.92555 0.792207 -2.28956
upperback 1.21243 0.774673 -0.586321
thorax -4.32569 0.416013 0.57476
lowerneck -15.9698 -1.63501 -6.27781
upperneck 3.63146 -1.4742 6.68761
head 3.74576 -0.458959 2.9684
rclavicle 3.37934e-015 -1.69961e-014
rhumerus -18.8001 -31.3653 -44.6942
rradius 115.325
rwrist -31.8183
rhand -18.5747 8.60768
rfingers 7.12502
rthumb 7.71568 -21.2316
lclavicle 3.37934e-015 -1.69961e-014
lhumerus -25.6804 17.2673 43.8108
lradius 97.9966
lwrist 35.5268
lhand -18.7744 15.3997
lfingers 7.12502
lthumb 7.52289 45.2459
rfemur -14.7622 8.67945 15.6865
rtibia 32.5044
rfoot -21.819 -25.9091
rtoes 0.59775
lfemur -14.6758 -0.706374 -17.8719
ltibia 30.7811
lfoot -18.1633 20.858
ltoes -6.77297
4169
root -3.37971 18.5809 3.99925 3.53633 -3.88841 1.52807
lowerback 10.1174 0.812015 -2.37331
upperback 1.20875 0.782428 -0.654586
thorax -4.43683 0.421624 0.547375
lowerneck -15.9074 -1.67072 -6.20719
upperneck 3.5186 -1.52911 6.61845
head 3.70364 -0.490052 2.93056
rclavicle -2.90723e-015 -1.80894e-014
rhumerus -18.7889 -31.2833 -44.7045
rradius 115.36
rwrist -31.9103
rhand -18.7181 8.53154
rfingers 7.12502
rthumb 7.57723 -21.3127
lclavicle -2.90723e-015 -1.80894e-014
lhumerus -25.6788 17.1336 43.756
lradius 98.0815
lwrist 35.4585
lhand -18.8298 15.1598
lfingers 7.12502
lthumb 7.46943 45.008
rfemur -15.2718 8.51833 15.4743
rtibia 33.0018
rfoot -21.948 -25.686
rtoes 0.655383
lfemur -15.0224 -0.464706 -18.0176
ltibia 31.037
lfoot -18.2115 20.6041
ltoes -6.45468
4170
root -3.3745 18.5711 3.97919 3.60594 -3.92202 1.63232
lowerback 10.339 0.836961 -2.47912
upperback 1.23398 0.79469 -0.698438
thorax -4.53515 0.429739 0.55693
lowerneck -15.9255 -1.69563 -6.18271
upperneck 3.457 -1.5645 6.62753
head 3.68984 -0.506474 2.92648
rclavicle -1.74185e-014 1.88845e-015
rhumerus -18.6902 -31.2376 -44.7783
rradius 115.335
rwrist -31.8837
rhand -18.4419 8.01895
rfingers 7.12502
rthumb 7.84388 -21.8155
lclavicle -1.74185e-014 1.88845e-015
lhumerus -25.6627 16.9949 43.7336
lradius 98.1748
lwrist 35.373
lhand -18.9296 15.1608
lfingers 7.12502
lthumb 7.37307 45.0124
rfemur -15.7307 8.38832 15.3035
rtibia 33.5006
rfoot -21.9555 -25.5539
rtoes 0.357411
lfemur -15.3302 -0.122157 -18.1238
ltibia 31.3235
lfoot -18.2768 20.172
ltoes -5.92602
4171
root -3.3684 18.5604 3.96218 3.65718 -3.95421 1.67305
lowerback 10.5033 0.840159 -2.50479
upperback 1.31095 0.790509 -0.725484
thorax -4.54599 0.427319 0.54241
lowerneck -15.9012 -1.69566 -6.18389
upperneck 3.30136 -1.56299 6.67309
head 3.63888 -0.504057 2.94058
rclavicle 7.70291e-016 1.0138e-014
rhumerus -18.482 -31.199 -44.9373
rradius 115.263
rwrist -31.8565
rhand -18.0207 7.70723
rfingers 7.12502
rthumb 8.25038 -22.1117
lclavicle 7.70291e-016 1.0138e-014
lhumerus -25.5452 16.9682 43.7491
lradius 98.2371
lwrist 35.2751
lhand -18.9919 15.2869
lfingers 7.12502
lthumb 7.31299 45.1406
rfemur -16.1802 8.2693 15.2167
rtibia 34.012
rfoot -21.8125 -25.5777
rtoes -0.255054
lfemur -15.6425 0.34007 -18.1671
ltibia 31.664
lfoot -18.1882 19.7444
ltoes -6.38647
4172
root -3.36077 18.5492 3.94391 3.73172 -3.98894 1.77347
lowerback 10.6345 0.858367 -2.5748
upperback 1.3906 0.801864 -0.759385
thorax -4.53652 0.433068 0.543886
lowerneck -15.7994 -1.69625 -6.09683
upperneck 3.0444 -1.56648 6.55102
head 3.5423 -0.513396 2.88735
rclavicle 6.70898e-016 1.58034e-014
rhumerus -18.3398 -31.1569 -44.9761
rradius 115.212
rwrist -31.8311
rhand -17.8047 7.81137
rfingers 7.12502
rthumb 8.45884 -21.9992
lclavicle 6.70898e-016 1.58034e-014
lhumerus -25.3465 16.9553 43.8553
lradius 98.2631
lwrist 35.1569
lhand -18.8511 15.4193
lfingers 7.12502
lthumb 7.44883 45.2681
rfemur -16.676 8.05767 15.0617
rtibia 34.5565
rfoot -21.7176 -25.5338
rtoes -0.790263
lfemur -16.0092 0.768688 -18.2911
ltibia 32.0463
lfoot -18.0241 19.4282
ltoes -6.98544
4173
root -3.35269 18.5331 3.92077 3.8497 -4.03546 1.88374
lowerback 10.7885 0.908318 -2.67275
upperback 1.45706 0.85152 -0.778071
thorax -4.55524 0.458623 0.570857
lowerneck -15.763 -1.73189 -6.05884
upperneck 2.79834 -1.60666 6.4592
head 3.46235 -0.538742 2.84892
rclavicle -8.82107e-015 -2.10712e-014
rhumerus -18.2588 -31.0964 -44.911
rradius 115.213
rwrist -31.8246
rhand -18.0576 8.09564
rfingers 7.12502
rthumb 8.2147 -21.7247
lclavicle -8.82107e-015 -2.10712e-014
lhumerus -25.0943 16.9341 44.0344
lradius 98.2734
lwrist 35.1123
lhand -18.5761 15.6083
lfingers 7.12502
lthumb 7.71432 45.4475
rfemur -17.2374 7.86155 14.8888
rtibia 35.1168
rfoot -21.6657 -25.4319
rtoes -1.22344
lfemur -16.4641 1.18917 -18.4277
ltibia 32.4465
lfoot -17.8969 19.0502
ltoes -7.12239
4174
root -3.34422 18.5142 3.89591 4.01727 -4.1138 1.92454
lowerback 10.9041 0.956137 -2.7081
upperback 1.51668 0.906579 -0.799166
thorax -4.55895 0.485659 0.559625
lowerneck -15.8077 -1.76856 -6.0748
upperneck 2.64764 -1.64802 6.51182
head 3.42666 -0.556283 2.86446
rclavicle 2.17918e-014 -9.93923e-015
rhumerus -18.1771 -31.01 -44.89
rradius 115.228
rwrist -31.854
rhand -18.4523 8.28931
rfingers 7.12502
rthumb 7.83377 -21.5456
lclavicle 2.17918e-014 -9.93923e-015
lhumerus -24.8723 16.892 44.1789
lradius 98.3227
lwrist 35.0504
lhand -18.6782 15.5239
lfingers 7.12502
lthumb 7.61581 45.3668
rfemur -17.8577 7.75403 14.7804
rtibia 35.6971
rfoot -21.6687 -25.2947
rtoes -1.32851
lfemur -17.007 1.5353 -18.4818
ltibia 32.8739
lfoot -17.8673 18.7493
ltoes -7.3013
4175
root -3.33437 18.4965 3.87613 4.14229 -4.12066 2.00657
lowerback 11.0113 0.948058 -2.74342
upperback 1.57744 0.88696 -0.838204
thorax -4.55421 0.475655 0.540766
lowerneck -15.8189 -1.73989 -6.22989
upperneck 2.59368 -1.59519 6.76177
head 3.41321 -0.519149 2.97143
rclavicle 1.78658e-014 -5.1684e-015
rhumerus -18.0226 -30.9502 -45.0039
rradius 115.221
rwrist -31.7787
rhand -18.2708 8.15088
rfingers 7.12502
rthumb 8.00897 -21.6774
lclavicle 1.78658e-014 -5.1684e-015
lhumerus -24.7275 16.8259 44.231
lradius 98.3662
lwrist 34.8978
lhand -18.8679 15.3879
lfingers 7.12502
lthumb 7.43262 45.2373
rfemur -18.4026 7.58031 14.6179
rtibia 36.2737
rfoot -21.7653 -25.1375
rtoes -1.36389
lfemur -17.5061 1.84215 -18.5882
ltibia 33.3566
lfoot -17.8304 18.48
ltoes -7.47105
